<?xml version="1.0" encoding="UTF-8"?>
<svg width="200px" height="200px" viewBox="0 0 200 200" version="1.1" xmlns="http://www.w3.org/2000/svg" xmlns:xlink="http://www.w3.org/1999/xlink">
    <!-- Generator: Sketch 52.5 (67469) - http://www.bohemiancoding.com/sketch -->
    <title>banner_icon_work</title>
    <desc>Created with Sketch.</desc>
    <g id="banner_icon_work" stroke="none" stroke-width="1" fill="none" fill-rule="evenodd">
        <path d="M19.0664371,33.9099746 L180.24056,33.9099746 C190.73397,33.9099746 199.24056,42.4165643 199.24056,52.9099746 L199.24056,126.602882 C199.24056,137.096293 190.73397,145.602882 180.24056,145.602882 L79.2850663,145.602882 C76.9500975,145.602882 74.6351292,146.033279 72.4561879,146.872501 L23.9673319,165.548044 L35.9177793,145.602882 L19.0664371,145.602882 C8.57302688,145.602882 0.0664371239,137.096293 0.0664371239,126.602882 L0.0664371239,52.9099746 C0.0664371239,42.4165643 8.57302688,33.9099746 19.0664371,33.9099746 Z M87.0284249,86.690562 C90.7370018,86.756651 93.1929696,86.0181525 94.3963284,84.4750664 C95.5091933,83.0480221 99.441268,77.7672437 106.167854,66.0285542 C107.279951,64.0878127 107.849394,59.1136251 107.849394,51.1059588 C107.849394,50.9359533 109.531147,47.582042 114.576087,49.2589976 C117.550703,50.2477705 119.648367,54.297314 120.869079,61.4076283 C121.181263,63.2260205 121.155301,65.0864036 120.792494,66.8953759 L120.284875,69.4263938 C119.843395,71.627637 119.621026,73.8671957 119.621026,76.112274 L119.621026,77.7672437 L144.134106,77.7672437 C145.607797,77.7672437 146.962121,78.5775575 147.658843,79.8761504 L148.27337,81.0215443 C149.338322,83.0064672 149.155757,85.4288054 147.805328,87.2316875 L144.845724,91.182889 C147.135413,92.8953656 147.603337,96.139762 145.89086,98.4294511 C145.406916,99.0765151 144.778232,99.6013195 144.055115,99.9618693 L141.482431,101.244623 L143.046185,103.585301 C144.273387,105.422219 143.779115,107.90618 141.942197,109.133383 C141.85941,109.188691 141.774588,109.240889 141.687906,109.289867 L138.119138,111.306357 L138.320787,111.676004 C140.171709,115.068885 138.921703,119.319827 135.528822,121.170748 C135.400817,121.240579 135.270661,121.306392 135.138544,121.368091 C134.480813,121.675251 122.114427,121.676434 98.0393847,121.37164 L98.0393849,121.371624 C97.8563812,121.369307 97.6775228,121.316812 97.5222958,121.219857 L96.4172024,120.529613 C95.5399207,119.981661 94.526369,119.691135 93.4920216,119.691135 L86.9694893,119.691135 L86.9694893,125.773642 C86.9694893,126.878211 86.0740588,127.773642 84.9694893,127.773642 L57.6302429,127.773642 C56.5811964,127.773642 55.7104235,126.963092 55.6353683,125.916734 L52.7148422,85.2011737 C52.5963007,83.5485655 53.8399075,82.112765 55.4925157,81.9942234 C55.5639471,81.9890996 55.6355391,81.9865353 55.7071541,81.9865353 L86.007064,81.9865663 C86.5456238,81.9865663 86.9874434,82.4130887 87.0064126,82.9513143 C87.0723139,84.8211795 87.0796513,86.0675954 87.0284249,86.690562 Z M77.1165656,120.990367 C78.9304387,120.990367 80.4008735,119.471879 80.4008735,117.598729 C80.4008735,115.72558 78.9304387,114.207092 77.1165656,114.207092 C75.3026924,114.207092 73.8322577,115.72558 73.8322577,117.598729 C73.8322577,119.471879 75.3026924,120.990367 77.1165656,120.990367 Z" id="Combined-Shape" fill="#FFFFFF"></path>
        <path d="M87.0620311,89.9992391 C92.2501782,90.061778 95.6842148,88.9170991 97.3641409,86.5652025 C100.153267,82.660426 103.146273,78.3478902 106.343158,73.6275952 L106.343158,73.6275951 C108.707384,70.1367456 110.110298,66.0846837 110.410684,61.8792867 L110.977955,53.9374913 C111.046883,52.9724968 111.849853,52.2248365 112.817306,52.2248365 L112.817306,52.2248365 C113.858949,52.2248365 114.800367,52.845604 115.210691,53.8030253 L116.848877,57.6254601 C117.58071,59.3330699 117.822381,61.2107879 117.54679,63.0480577 L116.700573,68.6895051 C116.401226,70.6851532 116.188315,72.6928123 116.062437,74.7068567 L115.878199,77.6546733 C115.774847,79.308301 117.031594,80.7326142 118.685222,80.8359659 C118.747524,80.8398598 118.809933,80.8418082 118.872356,80.8418082 L143.630757,80.8418082 C144.71161,80.8418082 145.671197,81.5334398 146.012993,82.5588265 L146.012993,82.5588265 C146.374114,83.6421897 146.214831,84.831597 145.581383,85.7817694 L145.440653,85.9928631 C144.685016,87.1263185 143.712412,88.0989233 142.578956,88.8545602 L141.814368,89.3642855 C141.219343,89.7609694 140.861938,90.428786 140.861938,91.143918 L140.861938,91.143918 C140.861938,91.86451 141.201207,92.5430489 141.777681,92.9754042 L143.151296,94.0056152 C143.932724,94.5916863 144.091092,95.7002635 143.505021,96.4816917 C143.340279,96.7013481 143.126657,96.8796317 142.881074,97.0024233 L139.018409,98.9337558 C138.030452,99.4277343 137.630003,100.62908 138.123981,101.617037 C138.247376,101.863827 138.4205,102.082414 138.632467,102.259053 L140.393149,103.726288 C141.241703,104.433416 141.356351,105.694545 140.649223,106.543099 C140.411124,106.828817 140.098072,107.042485 139.745235,107.160097 L137.519981,107.901848 C135.614747,108.536926 134.585082,110.596256 135.22016,112.501489 C135.334789,112.845375 135.500192,113.170188 135.710883,113.465156 L135.710883,113.465156 C136.732793,114.89583 136.401425,116.884043 134.97075,117.905953 C134.604254,118.167736 134.186382,118.348772 133.74474,118.4371 L132.849186,118.616211 L100.12764,118.616211 C99.0911269,118.616211 98.0970665,118.204458 97.3641409,117.471532 L97.3641409,117.471532 C96.6312154,116.738606 95.637155,116.326853 94.6006417,116.326853 L87.0620311,116.326853 L87.0620311,89.9992391 Z" id="Line-18" fill="#FFFFFF"></path>
    </g>
</svg>