<?xml version="1.0" encoding="UTF-8"?>
<svg width="200px" height="200px" viewBox="0 0 200 200" version="1.1" xmlns="http://www.w3.org/2000/svg" xmlns:xlink="http://www.w3.org/1999/xlink">
    <!-- Generator: Sketch 52.5 (67469) - http://www.bohemiancoding.com/sketch -->
    <title>banner_icon_about</title>
    <desc>Created with Sketch.</desc>
    <g id="banner_icon_about" stroke="none" stroke-width="1" fill="none" fill-rule="evenodd" stroke-linecap="round">
        <g id="Group" transform="translate(27.000000, 54.000000)" stroke="#FFFFFF" stroke-width="6">
            <path d="M122,126.875 L114,105 C118.060288,104.09235 120.726954,103.09235 122,102 C123.273046,100.90765 124.606379,98.904439 126,95.9903667 C130.721099,94.4796102 134.387766,91.4828213 137,87 C137.393636,86.3244865 137.750662,85.6220911 138.071079,84.8928138 L138.07108,84.8928143 C141.40129,77.3131711 139.131877,68.4394082 132.571652,63.3891859 C129.384146,60.9353651 126.360262,59.1389698 123.5,58 C118.5,56.0089765 110.666667,55.0089765 100,55" id="Line-19"></path>
            <path d="M127.5,59.5 C124.696991,54.9664445 122.863657,51.4664445 122,49 C121.136343,46.5335555 120.401814,42.7002222 119.796415,37.5" id="Line"></path>
            <path d="M137.5,69.5 C143.377012,63.2237574 145.877012,56.7237574 145,50 C144.122988,43.2762426 140.122988,38.2762426 133,35 C129.767166,23.5048303 124.767166,15.8381636 118,12 C107.849251,6.24275453 97,5.81994912 87,8.90997456 C77,12 70,20.359375 68,27.359375 C66.6666667,32.0260417 67,37.5729167 69,44" id="Line-2"></path>
            <path d="M82.5,9.5 C76.5544629,2.90308112 70.5544629,-0.0969188788 64.5,0.5 C58.4455371,1.09691888 52.6122038,5.26358555 47,13 C39.6666667,10.6666667 33.3333333,11.3333333 28,15 C22.6666667,18.6666667 19.6666667,23.6666667 19,30 C10.3333333,32.375 4.66666667,36.7083333 2,43 C-0.666666667,49.2916667 -3.3173464e-13,55.2916667 4,61 C0.666666667,66.3333333 -3.16857651e-13,71.6666667 2,77 C4,82.3333333 8.66666667,85 16,85 C17.3333333,91.6666667 21,96 27,98 C33,100 38,98.7878788 42,94.3636364 L44,77 C41.7425167,71.4710056 39.4091833,67.8043389 37,66 C34.5908167,64.1956611 29.92415,64.1956611 23,66" id="Line-3"></path>
            <path d="M99,107 C101.325778,106.915149 103.575778,106.748483 105.75,106.5 C107.924222,106.251517 112.007555,105.418184 118,104" id="Line-6"></path>
            <path d="M53.5,63.5 L49.1862915,67.8137085 C46.1857094,70.8142906 44.5,74.8839532 44.5,79.127417 L44.5000015,86.1921491 C44.5000015,90.1879026 46.337547,93.9616826 49.4830278,96.4258248 C52.6491981,98.906175 55.4881888,100.4309 58,101 C60.860142,101.648021 65.2025402,101.488941 71.0271946,100.52276 L71.0271949,100.522762 C74.7486017,99.9054629 78.2350258,98.2971577 81.1200869,95.8668595 C90.9693901,87.5700701 97.2626945,82.7583687 100,81.4317554 C103.101495,79.9286407 107.768161,79.9286407 114,81.4317554" id="Line-4"></path>
            <path d="M121,126.875 L98,107 C93.5637241,106.813725 90.2303907,106.147058 88,105 C85.7696093,103.852942 83.2696093,101.519609 80.5,98" id="Line-5"></path>
        </g>
        <path d="M100,34.5 L100,4.5" id="Line-20" stroke="#FFFFFF" stroke-width="4"></path>
        <path d="M189.623204,69.4760807 L188.441637,48.248648" id="Line-20-Copy" stroke="#FFFFFF" stroke-width="4" transform="translate(188.875113, 58.897946) rotate(52.000000) translate(-188.875113, -58.897946) "></path>
        <path d="M174.912575,72.575694 L174.734402,69.5565284" id="Line-20-Copy-7" stroke="#FFFFFF" stroke-width="4" transform="translate(174.912575, 71.075694) rotate(52.000000) translate(-174.912575, -71.075694) "></path>
        <path d="M149.068145,25.2924225 L148.721943,15.2812817" id="Line-20-Copy-2" stroke="#FFFFFF" stroke-width="4" transform="translate(148.721943, 20.281282) rotate(24.000000) translate(-148.721943, -20.281282) "></path>
        <path d="M141.197315,43.6818727 L141.243301,30.3944962" id="Line-20-Copy-5" stroke="#FFFFFF" stroke-width="4" transform="translate(141.197315, 37.181873) rotate(24.000000) translate(-141.197315, -37.181873) "></path>
        <path d="M57.0105542,43.5871414 L56.8625074,30.2810507" id="Line-20-Copy-3" stroke="#FFFFFF" stroke-width="4" transform="translate(57.010554, 37.087141) rotate(-25.000000) translate(-57.010554, -37.087141) "></path>
        <path d="M48.852951,25.325607 L49.1921164,15.3204473" id="Line-20-Copy-6" stroke="#FFFFFF" stroke-width="4" transform="translate(49.192116, 20.320447) rotate(-25.000000) translate(-49.192116, -20.320447) "></path>
        <path d="M11.8842874,64.4988737 L12.9670955,44.0091805" id="Line-20-Copy-4" stroke="#FFFFFF" stroke-width="4" transform="translate(12.190464, 54.047336) rotate(-50.000000) translate(-12.190464, -54.047336) "></path>
        <path d="M25.3364766,68.3835574 L25.5372725,64.4704234" id="Line-20-Copy-8" stroke="#FFFFFF" stroke-width="4" transform="translate(25.336477, 66.383557) rotate(-50.000000) translate(-25.336477, -66.383557) "></path>
    </g>
</svg>